<?xml version="1.0" ?><svg fill="none" height="24" viewBox="0 0 24 24" width="24" xmlns="http://www.w3.org/2000/svg"><path clip-rule="evenodd" d="M3 2.25C3.41421 2.25 3.75 2.58579 3.75 3V6.1197C4.04421 5.81983 4.38572 5.5012 4.77471 5.18253C6.36894 3.87653 8.7814 2.55508 12 2.55508C17.4037 2.55508 21.75 6.84156 21.75 12.1525C21.75 17.4651 17.3726 21.75 12 21.75C6.62736 21.75 2.25 17.4651 2.25 12.1525C2.25 11.7383 2.58579 11.4025 3 11.4025C3.41421 11.4025 3.75 11.7383 3.75 12.1525C3.75 16.6126 7.43151 20.25 12 20.25C16.5685 20.25 20.25 16.6126 20.25 12.1525C20.25 7.69089 16.5963 4.05508 12 4.05508C9.2186 4.05508 7.13106 5.19126 5.72529 6.34288C5.248 6.73388 4.85168 7.12495 4.53685 7.47034H7.6551C8.06932 7.47034 8.4051 7.80612 8.4051 8.22034C8.4051 8.63455 8.06932 8.97034 7.6551 8.97034H3C2.58579 8.97034 2.25 8.63455 2.25 8.22034V3C2.25 2.58579 2.58579 2.25 3 2.25Z" fill="black" fill-rule="evenodd"/></svg>