<?xml version="1.0" encoding="iso-8859-1"?>
<!-- Generator: Adobe Illustrator 16.0.0, SVG Export Plug-In . SVG Version: 6.00 Build 0)  -->
<!DOCTYPE svg PUBLIC "-//W3C//DTD SVG 1.1//EN" "http://www.w3.org/Graphics/SVG/1.1/DTD/svg11.dtd">
<svg version="1.1" id="Capa_1" xmlns="http://www.w3.org/2000/svg" xmlns:xlink="http://www.w3.org/1999/xlink" x="0px" y="0px"
	 width="631.873px" height="631.873px" viewBox="0 0 631.873 631.873" style="enable-background:new 0 0 631.873 631.873;"
	 xml:space="preserve">
<g>
	<path d="M517.657,631.873H340.145c-57.503,0-104.28-46.776-104.28-104.279V386.072H114.216
		c-57.502,0-104.279-46.777-104.279-104.28V104.279C9.937,46.777,56.713,0,114.216,0h177.513
		c57.502,0,104.279,46.777,104.279,104.279v141.522h121.649c57.503,0,104.279,46.777,104.279,104.28v177.513
		C621.937,585.097,575.16,631.873,517.657,631.873z M114.216,29.794c-41.086,0-74.485,33.429-74.485,74.485v177.513
		c0,41.056,33.399,74.485,74.485,74.485h136.546c8.223,0,14.897,6.674,14.897,14.897v156.419c0,41.056,33.399,74.485,74.485,74.485
		h177.513c41.086,0,74.485-33.43,74.485-74.485V350.081c0-41.057-33.399-74.486-74.485-74.486H381.111
		c-8.224,0-14.897-6.674-14.897-14.897V104.279c0-41.056-33.399-74.485-74.485-74.485H114.216z"/>
</g>
<g>
</g>
<g>
</g>
<g>
</g>
<g>
</g>
<g>
</g>
<g>
</g>
<g>
</g>
<g>
</g>
<g>
</g>
<g>
</g>
<g>
</g>
<g>
</g>
<g>
</g>
<g>
</g>
<g>
</g>
</svg>
